<?xml version="1.0" encoding="UTF-8"?>
<svg xmlns="http://www.w3.org/2000/svg"
     width="178.491" height="133.493"
     viewBox="0 0 178.491 133.493">
  <g fill="black" fill-rule="evenodd" stroke="none">
    <path d="M 96.90625 27.417969 C 95.617188 28.710938 93.628906 29.863281 88.988281 29.863281 C 84.492188 29.863281 82.492188 28.777344 81.199219 27.535156 C 80.660156 26.988281 80.015625 26.550781 79.296875 26.253906 C 79.226562 26.226562 79.148438 26.214844 79.078125 26.1875 C 78.8125 26.089844 78.546875 25.996094 78.261719 25.941406 C 77.898438 25.867188 77.523438 25.828125 77.140625 25.828125 C 73.996094 25.828125 71.441406 28.378906 71.441406 31.523438 C 71.441406 31.90625 71.484375 32.28125 71.554688 32.644531 C 71.617188 32.9375 71.710938 33.214844 71.8125 33.488281 C 71.835938 33.550781 71.847656 33.617188 71.871094 33.679688 C 72.144531 34.339844 72.539062 34.9375 73.027344 35.449219 C 73.070312 35.492188 73.109375 35.539062 73.148438 35.582031 C 74.394531 36.875 75.484375 38.875 75.484375 43.367188 C 75.484375 48.011719 74.328125 50.003906 73.035156 51.289062 C 72.054688 52.3125 71.441406 53.691406 71.441406 55.222656 C 71.441406 58.367188 73.996094 60.917969 77.140625 60.917969 C 80.285156 60.917969 82.835938 58.367188 82.835938 55.222656 C 82.835938 53.691406 82.226562 52.3125 81.246094 51.289062 C 79.953125 50.003906 78.796875 48.011719 78.796875 43.367188 C 78.796875 38.832031 79.90625 36.835938 81.164062 35.542969 C 82.453125 34.285156 84.449219 33.179688 88.988281 33.179688 C 93.628906 33.179688 95.617188 34.332031 96.90625 35.628906 C 97.929688 36.609375 99.308594 37.21875 100.839844 37.21875 C 103.984375 37.21875 106.535156 34.667969 106.535156 31.523438 C 106.535156 28.378906 103.984375 25.828125 100.839844 25.828125 C 99.308594 25.828125 97.929688 26.4375 96.90625 27.417969 M 83.292969 43.371094 C 83.292969 46.519531 85.84375 49.066406 88.988281 49.066406 C 92.132812 49.066406 94.683594 46.519531 94.683594 43.371094 C 94.683594 40.226562 92.132812 37.675781 88.988281 37.675781 C 85.84375 37.675781 83.292969 40.226562 83.292969 43.371094 "/>
    <path d="M 128.816406 79.515625 C 126.847656 79.515625 125.246094 81.113281 125.246094 83.085938 L 125.246094 109.164062 L 151.546875 109.164062 L 151.546875 103.363281 L 131.6875 103.363281 L 131.6875 97.136719 L 149.429688 97.136719 L 149.429688 91.335938 L 131.6875 91.335938 L 131.6875 85.316406 L 151.332031 85.316406 L 151.332031 79.515625 Z M 92.0625 79.515625 L 92.0625 85.234375 L 111.550781 85.234375 L 92.8125 103.191406 C 92.25 103.847656 91.9375 104.683594 91.9375 105.546875 C 91.9375 107.546875 93.558594 109.164062 95.554688 109.164062 L 123.425781 109.164062 L 123.425781 103.445312 L 100.742188 103.445312 L 119.523438 85.488281 C 120.089844 84.832031 120.398438 83.996094 120.398438 83.132812 C 120.398438 81.132812 118.78125 79.515625 116.785156 79.515625 Z M 82.753906 79.515625 C 80.785156 79.515625 79.1875 81.113281 79.1875 83.085938 L 79.1875 96.5 C 79.1875 98.871094 78.621094 100.652344 77.492188 101.835938 C 76.367188 103.019531 74.8125 103.609375 72.820312 103.617188 L 69.027344 103.617188 C 67.019531 103.617188 65.453125 103 64.324219 101.773438 C 63.195312 100.546875 62.628906 98.71875 62.628906 96.289062 L 62.628906 87.222656 L 56.105469 87.222656 L 56.105469 96.457031 C 56.105469 100.835938 57.253906 104.125 59.539062 106.328125 C 61.828125 108.527344 64.957031 109.628906 68.941406 109.628906 L 72.746094 109.628906 C 74.707031 109.625 76.488281 109.351562 78.082031 108.804688 C 79.695312 108.253906 81.066406 107.421875 82.191406 106.304688 C 83.320312 105.191406 84.191406 103.800781 84.796875 102.132812 C 85.40625 100.46875 85.707031 98.507812 85.707031 96.246094 L 85.707031 85.234375 L 90.242188 85.234375 L 90.242188 79.515625 Z M 30.007812 79.515625 C 28.035156 79.515625 26.4375 81.113281 26.4375 83.085938 L 26.4375 109.164062 L 32.960938 109.164062 L 32.960938 97.6875 L 47.105469 97.6875 L 47.105469 91.800781 L 32.960938 91.800781 L 32.960938 85.402344 L 62.628906 85.402344 L 62.628906 79.515625 Z M 30.007812 79.515625 "/>
  </g>
</svg>
