<?xml version="1.0" encoding="UTF-8"?>
<svg xmlns="http://www.w3.org/2000/svg"
     width="55.4095" height="17.0427"
     viewBox="0 0 55.4095 17.0427">
  <g fill="black" fill-rule="evenodd" stroke="none">
    <path d="M 11.347656 4 C 11.023438 4.324219 10.519531 4.613281 9.347656 4.613281 C 8.214844 4.613281 7.710938 4.339844 7.382812 4.027344 C 7.25 3.890625 7.085938 3.78125 6.902344 3.703125 C 6.886719 3.695312 6.867188 3.695312 6.847656 3.6875 C 6.78125 3.664062 6.714844 3.640625 6.644531 3.625 C 6.550781 3.605469 6.457031 3.597656 6.359375 3.597656 C 5.566406 3.597656 4.921875 4.238281 4.921875 5.03125 C 4.921875 5.128906 4.933594 5.226562 4.953125 5.316406 C 4.964844 5.390625 4.992188 5.460938 5.015625 5.53125 C 5.023438 5.546875 5.023438 5.5625 5.03125 5.578125 C 5.097656 5.746094 5.199219 5.894531 5.324219 6.023438 C 5.332031 6.035156 5.34375 6.046875 5.351562 6.058594 C 5.667969 6.382812 5.941406 6.890625 5.941406 8.023438 C 5.941406 9.195312 5.652344 9.695312 5.324219 10.019531 C 5.078125 10.277344 4.921875 10.628906 4.921875 11.011719 C 4.921875 11.804688 5.566406 12.449219 6.359375 12.449219 C 7.152344 12.449219 7.796875 11.804688 7.796875 11.011719 C 7.796875 10.628906 7.644531 10.277344 7.394531 10.019531 C 7.070312 9.695312 6.777344 9.195312 6.777344 8.023438 C 6.777344 6.878906 7.058594 6.375 7.375 6.046875 C 7.699219 5.730469 8.203125 5.453125 9.347656 5.453125 C 10.519531 5.453125 11.023438 5.742188 11.347656 6.070312 C 11.605469 6.316406 11.953125 6.46875 12.339844 6.46875 C 13.132812 6.46875 13.777344 5.828125 13.777344 5.03125 C 13.777344 4.238281 13.132812 3.597656 12.339844 3.597656 C 11.953125 3.597656 11.605469 3.75 11.347656 4 M 7.914062 8.023438 C 7.914062 8.816406 8.554688 9.460938 9.351562 9.460938 C 10.144531 9.460938 10.785156 8.816406 10.785156 8.023438 C 10.785156 7.230469 10.144531 6.585938 9.351562 6.585938 C 8.554688 6.585938 7.914062 7.230469 7.914062 8.023438 "/>
    <path d="M 44.789062 4.222656 C 44.292969 4.222656 43.890625 4.628906 43.890625 5.125 L 43.890625 11.707031 L 50.523438 11.707031 L 50.523438 10.242188 L 45.515625 10.242188 L 45.515625 8.671875 L 49.992188 8.671875 L 49.992188 7.207031 L 45.515625 7.207031 L 45.515625 5.6875 L 50.472656 5.6875 L 50.472656 4.222656 Z M 35.515625 4.222656 L 35.515625 5.667969 L 40.433594 5.667969 L 35.707031 10.199219 C 35.5625 10.363281 35.488281 10.574219 35.488281 10.792969 C 35.488281 11.296875 35.894531 11.707031 36.398438 11.707031 L 43.429688 11.707031 L 43.429688 10.261719 L 37.707031 10.261719 L 42.445312 5.730469 C 42.585938 5.566406 42.667969 5.355469 42.667969 5.136719 C 42.667969 4.632812 42.257812 4.222656 41.753906 4.222656 Z M 33.167969 4.222656 C 32.671875 4.222656 32.269531 4.628906 32.269531 5.125 L 32.269531 8.507812 C 32.269531 9.109375 32.125 9.558594 31.839844 9.855469 C 31.558594 10.152344 31.164062 10.304688 30.664062 10.304688 L 29.707031 10.304688 C 29.199219 10.304688 28.804688 10.152344 28.519531 9.839844 C 28.234375 9.53125 28.09375 9.066406 28.09375 8.457031 L 28.09375 6.167969 L 26.445312 6.167969 L 26.445312 8.5 C 26.445312 9.601562 26.734375 10.433594 27.3125 10.988281 C 27.886719 11.542969 28.679688 11.820312 29.683594 11.820312 L 30.644531 11.820312 C 31.140625 11.820312 31.585938 11.753906 31.992188 11.613281 C 32.394531 11.476562 32.742188 11.265625 33.027344 10.984375 C 33.3125 10.703125 33.53125 10.351562 33.683594 9.929688 C 33.835938 9.511719 33.914062 9.015625 33.914062 8.445312 L 33.914062 5.667969 L 35.058594 5.667969 L 35.058594 4.222656 Z M 19.859375 4.222656 C 19.363281 4.222656 18.960938 4.628906 18.960938 5.125 L 18.960938 11.707031 L 20.605469 11.707031 L 20.605469 8.808594 L 24.175781 8.808594 L 24.175781 7.324219 L 20.605469 7.324219 L 20.605469 5.710938 L 28.09375 5.710938 L 28.09375 4.222656 Z M 19.859375 4.222656 "/>
  </g>
</svg>
